<?xml version="1.0" encoding="UTF-8"?><svg xmlns="http://www.w3.org/2000/svg" width="988" height="300" viewBox="0 0 988 300"><defs><linearGradient id="bg" x1="0" y1="0" x2="1" y2="1"><stop offset="0%" stop-color="#FCFEFF"/><stop offset="100%" stop-color="#F3F8FF"/></linearGradient><marker id="arrow" markerWidth="10" markerHeight="7" refX="9" refY="3.5" orient="auto"><polygon points="0 0, 10 3.5, 0 7" fill="#355D8A" /></marker></defs><rect x="0" y="0" width="988" height="300" fill="url(#bg)"/><text x="494.0" y="33" text-anchor="middle" font-size="19" font-family="Arial, sans-serif" font-weight="700" fill="#162A42">Rust (Anchor) Execution Flow (Solana)</text><rect x="64.0" y="44" rx="8" ry="8" width="860" height="28" fill="#FFF2CC" stroke="#A97700" stroke-width="1.7"/><text x="494.0" y="63" text-anchor="middle" font-size="12" font-family="Arial, sans-serif" font-weight="700" fill="#1E3148">Translation layers before runtime: 1</text><line x1="204" y1="198" x2="211" y2="198" stroke="#355D8A" stroke-width="2.2" marker-end="url(#arrow)"/><line x1="394" y1="198" x2="401" y2="198" stroke="#355D8A" stroke-width="2.2" marker-end="url(#arrow)"/><line x1="584" y1="198" x2="591" y2="198" stroke="#355D8A" stroke-width="2.2" marker-end="url(#arrow)"/><line x1="774" y1="198" x2="781" y2="198" stroke="#355D8A" stroke-width="2.2" marker-end="url(#arrow)"/><rect x="28" y="156.0" rx="10" ry="10" width="172" height="84" fill="#EAF3FF" stroke="#6C8EBF" stroke-width="1.8"/><rect x="63.0" y="163.0" rx="6" ry="6" width="102" height="16" fill="#6C8EBF"/><text x="114.0" y="174.0" text-anchor="middle" font-size="9.5" font-family="Arial, sans-serif" font-weight="700" letter-spacing="0.4" fill="#FFFFFF">SOURCE</text><text x="114.0" y="192.0" text-anchor="middle" font-size="11.3" font-family="Arial, sans-serif" font-weight="600" fill="#1A2E45">Rust source with</text><text x="114.0" y="206.0" text-anchor="middle" font-size="11.3" font-family="Arial, sans-serif" font-weight="600" fill="#1A2E45">Anchor macros</text><rect x="218" y="149.0" rx="10" ry="10" width="172" height="98" fill="#FFF4DC" stroke="#D79B00" stroke-width="1.8"/><rect x="253.0" y="156.0" rx="6" ry="6" width="102" height="16" fill="#B68400"/><text x="304.0" y="167.0" text-anchor="middle" font-size="9.5" font-family="Arial, sans-serif" font-weight="700" letter-spacing="0.4" fill="#FFFFFF">TRANSLATION</text><text x="304.0" y="185.0" text-anchor="middle" font-size="11.3" font-family="Arial, sans-serif" font-weight="600" fill="#1A2E45">Anchor build compiles</text><text x="304.0" y="199.0" text-anchor="middle" font-size="11.3" font-family="Arial, sans-serif" font-weight="600" fill="#1A2E45">to Solana program</text><text x="304.0" y="213.0" text-anchor="middle" font-size="11.3" font-family="Arial, sans-serif" font-weight="600" fill="#1A2E45">binary + IDL</text><rect x="408" y="156.0" rx="10" ry="10" width="172" height="84" fill="#EAF8EC" stroke="#82B366" stroke-width="1.8"/><rect x="443.0" y="163.0" rx="6" ry="6" width="102" height="16" fill="#5E9342"/><text x="494.0" y="174.0" text-anchor="middle" font-size="9.5" font-family="Arial, sans-serif" font-weight="700" letter-spacing="0.4" fill="#FFFFFF">DEPLOYMENT</text><text x="494.0" y="192.0" text-anchor="middle" font-size="11.3" font-family="Arial, sans-serif" font-weight="600" fill="#1A2E45">Deploy program to</text><text x="494.0" y="206.0" text-anchor="middle" font-size="11.3" font-family="Arial, sans-serif" font-weight="600" fill="#1A2E45">Solana</text><rect x="598" y="149.0" rx="10" ry="10" width="172" height="98" fill="#EAF1FF" stroke="#3C78D8" stroke-width="1.8"/><rect x="633.0" y="156.0" rx="6" ry="6" width="102" height="16" fill="#2C5FAE"/><text x="684.0" y="167.0" text-anchor="middle" font-size="9.5" font-family="Arial, sans-serif" font-weight="700" letter-spacing="0.4" fill="#FFFFFF">RUNTIME</text><text x="684.0" y="185.0" text-anchor="middle" font-size="11.3" font-family="Arial, sans-serif" font-weight="600" fill="#1A2E45">Client instruction</text><text x="684.0" y="199.0" text-anchor="middle" font-size="11.3" font-family="Arial, sans-serif" font-weight="600" fill="#1A2E45">dispatched by</text><text x="684.0" y="213.0" text-anchor="middle" font-size="11.3" font-family="Arial, sans-serif" font-weight="600" fill="#1A2E45">Sealevel runtime</text><rect x="788" y="149.0" rx="10" ry="10" width="172" height="98" fill="#F5ECF8" stroke="#9673A6" stroke-width="1.8"/><rect x="823.0" y="156.0" rx="6" ry="6" width="102" height="16" fill="#775887"/><text x="874.0" y="167.0" text-anchor="middle" font-size="9.5" font-family="Arial, sans-serif" font-weight="700" letter-spacing="0.4" fill="#FFFFFF">STATE / OUTPUT</text><text x="874.0" y="185.0" text-anchor="middle" font-size="11.3" font-family="Arial, sans-serif" font-weight="600" fill="#1A2E45">Program updates and</text><text x="874.0" y="199.0" text-anchor="middle" font-size="11.3" font-family="Arial, sans-serif" font-weight="600" fill="#1A2E45">reads calculator</text><text x="874.0" y="213.0" text-anchor="middle" font-size="11.3" font-family="Arial, sans-serif" font-weight="600" fill="#1A2E45">account data</text></svg>