<?xml version="1.0" encoding="UTF-8"?><svg xmlns="http://www.w3.org/2000/svg" width="1280" height="838" viewBox="0 0 1280 838"><defs><marker id="arrow" markerWidth="10" markerHeight="7" refX="9" refY="3.5" orient="auto"><polygon points="0 0, 10 3.5, 0 7" fill="#355D8A" /></marker></defs><rect x="0" y="0" width="100%" height="100%" fill="#FBFDFF" /><text x="640.0" y="44" text-anchor="middle" font-size="30" font-family="Arial, sans-serif" font-weight="700" fill="#1F2A44">Vyper Execution Flow (EVM)</text><rect x="110" y="62" rx="10" ry="10" width="920" height="42" fill="#FFF3CD" stroke="#B38600" stroke-width="2" /><text x="570.0" y="89" text-anchor="middle" font-size="20" font-family="Arial, sans-serif" fill="#1F2A44">Translation layers before runtime: 1 (layer)</text><rect x="110" y="126" rx="12" ry="12" width="920" height="86" fill="#E8F1FB" stroke="#6C8EBF" stroke-width="2" /><text x="570.0" y="178" text-anchor="middle" font-size="22" font-family="Arial, sans-serif" fill="#1F2A44">Vyper source</text><line x1="570.0" y1="212" x2="570.0" y2="236" stroke="#355D8A" stroke-width="3" marker-end="url(#arrow)" /><rect x="110" y="244" rx="12" ry="12" width="920" height="86" fill="#FDEBD0" stroke="#D79B00" stroke-width="2" /><text x="570.0" y="296" text-anchor="middle" font-size="22" font-family="Arial, sans-serif" fill="#1F2A44">vyper compiles source to EVM bytecode + ABI</text><line x1="570.0" y1="330" x2="570.0" y2="354" stroke="#355D8A" stroke-width="3" marker-end="url(#arrow)" /><rect x="110" y="362" rx="12" ry="12" width="920" height="86" fill="#E8F5E9" stroke="#82B366" stroke-width="2" /><text x="570.0" y="414" text-anchor="middle" font-size="22" font-family="Arial, sans-serif" fill="#1F2A44">Deployment transaction creates contract account</text><line x1="570.0" y1="448" x2="570.0" y2="472" stroke="#355D8A" stroke-width="3" marker-end="url(#arrow)" /><rect x="110" y="480" rx="12" ry="12" width="920" height="86" fill="#E3F2FD" stroke="#3C78D8" stroke-width="2" /><text x="570.0" y="532" text-anchor="middle" font-size="22" font-family="Arial, sans-serif" fill="#1F2A44">add(a, b) executes in EVM bytecode runtime</text><line x1="570.0" y1="566" x2="570.0" y2="590" stroke="#355D8A" stroke-width="3" marker-end="url(#arrow)" /><rect x="110" y="598" rx="12" ry="12" width="920" height="86" fill="#F3E5F5" stroke="#9673A6" stroke-width="2" /><text x="570.0" y="650" text-anchor="middle" font-size="22" font-family="Arial, sans-serif" fill="#1F2A44">Storage write and read_result() via call execution</text><text x="110" y="708" font-size="18" font-family="Arial, sans-serif" fill="#1F2A44" font-weight="700">Legend</text><rect x="110" y="718" rx="8" ry="8" width="210" height="34" fill="#E8F1FB" stroke="#6C8EBF" stroke-width="2" /><text x="215" y="741" text-anchor="middle" font-size="14" font-family="Arial, sans-serif" fill="#1F2A44">Source code</text><rect x="338" y="718" rx="8" ry="8" width="210" height="34" fill="#FDEBD0" stroke="#D79B00" stroke-width="2" /><text x="443" y="741" text-anchor="middle" font-size="14" font-family="Arial, sans-serif" fill="#1F2A44">Compilation / translation</text><rect x="566" y="718" rx="8" ry="8" width="210" height="34" fill="#E8F5E9" stroke="#82B366" stroke-width="2" /><text x="671" y="741" text-anchor="middle" font-size="14" font-family="Arial, sans-serif" fill="#1F2A44">Deployment</text><rect x="794" y="718" rx="8" ry="8" width="210" height="34" fill="#E3F2FD" stroke="#3C78D8" stroke-width="2" /><text x="899" y="741" text-anchor="middle" font-size="14" font-family="Arial, sans-serif" fill="#1F2A44">Runtime execution</text><rect x="1022" y="718" rx="8" ry="8" width="210" height="34" fill="#F3E5F5" stroke="#9673A6" stroke-width="2" /><text x="1127" y="741" text-anchor="middle" font-size="14" font-family="Arial, sans-serif" fill="#1F2A44">State / read result</text></svg>