<?xml version="1.0" encoding="UTF-8"?><svg xmlns="http://www.w3.org/2000/svg" width="816" height="274" viewBox="0 0 816 274"><defs><linearGradient id="bg" x1="0" y1="0" x2="1" y2="1"><stop offset="0%" stop-color="#FCFEFF"/><stop offset="100%" stop-color="#F3F8FF"/></linearGradient><marker id="arrow" markerWidth="8" markerHeight="6" refX="7" refY="3" orient="auto"><polygon points="0 0, 8 3, 0 6" fill="#274D79" /></marker></defs><rect x="0" y="0" width="816" height="274" fill="url(#bg)"/><text x="408.0" y="31" text-anchor="middle" font-size="18" font-family="Arial, sans-serif" font-weight="700" fill="#162A42">Xian Python Contract Execution Flow</text><rect x="28.0" y="40" rx="8" ry="8" width="760" height="26" fill="#D7F2DF" stroke="#2E7D32" stroke-width="1.6"/><text x="408.0" y="58" text-anchor="middle" font-size="11.5" font-family="Arial, sans-serif" font-weight="700" fill="#1E3148">Translation layers before runtime: 0 (direct Python execution)</text><rect x="28" y="150.0" rx="10" ry="10" width="172" height="72" fill="#EAF3FF" stroke="#6C8EBF" stroke-width="1.8"/><rect x="62.0" y="157.0" rx="6" ry="6" width="104" height="16" fill="#6C8EBF"/><text x="114.0" y="168.0" text-anchor="middle" font-size="9.4" font-family="Arial, sans-serif" font-weight="700" letter-spacing="0.4" fill="#FFFFFF">SOURCE</text><text x="114.0" y="185.0" text-anchor="middle" font-size="10.9" font-family="Arial, sans-serif" font-weight="600" fill="#1A2E45">Python contract</text><text x="114.0" y="197.0" text-anchor="middle" font-size="10.9" font-family="Arial, sans-serif" font-weight="600" fill="#1A2E45">source</text><rect x="224" y="144.0" rx="10" ry="10" width="172" height="84" fill="#EAF8EC" stroke="#82B366" stroke-width="1.8"/><rect x="258.0" y="151.0" rx="6" ry="6" width="104" height="16" fill="#5E9342"/><text x="310.0" y="162.0" text-anchor="middle" font-size="9.4" font-family="Arial, sans-serif" font-weight="700" letter-spacing="0.4" fill="#FFFFFF">DEPLOYMENT</text><text x="310.0" y="179.0" text-anchor="middle" font-size="10.9" font-family="Arial, sans-serif" font-weight="600" fill="#1A2E45">Deploy transaction</text><text x="310.0" y="191.0" text-anchor="middle" font-size="10.9" font-family="Arial, sans-serif" font-weight="600" fill="#1A2E45">submits source</text><text x="310.0" y="203.0" text-anchor="middle" font-size="10.9" font-family="Arial, sans-serif" font-weight="600" fill="#1A2E45">unchanged</text><rect x="420" y="138.0" rx="10" ry="10" width="172" height="96" fill="#EAF1FF" stroke="#3C78D8" stroke-width="1.8"/><rect x="454.0" y="145.0" rx="6" ry="6" width="104" height="16" fill="#2C5FAE"/><text x="506.0" y="156.0" text-anchor="middle" font-size="9.4" font-family="Arial, sans-serif" font-weight="700" letter-spacing="0.4" fill="#FFFFFF">RUNTIME</text><text x="506.0" y="173.0" text-anchor="middle" font-size="10.9" font-family="Arial, sans-serif" font-weight="600" fill="#1A2E45">Xian runtime executes</text><text x="506.0" y="185.0" text-anchor="middle" font-size="10.9" font-family="Arial, sans-serif" font-weight="600" fill="#1A2E45">Python directly in</text><text x="506.0" y="197.0" text-anchor="middle" font-size="10.9" font-family="Arial, sans-serif" font-weight="600" fill="#1A2E45">the deterministic</text><text x="506.0" y="209.0" text-anchor="middle" font-size="10.9" font-family="Arial, sans-serif" font-weight="600" fill="#1A2E45">interpreter</text><rect x="616" y="144.0" rx="10" ry="10" width="172" height="84" fill="#F5ECF8" stroke="#9673A6" stroke-width="1.8"/><rect x="650.0" y="151.0" rx="6" ry="6" width="104" height="16" fill="#775887"/><text x="702.0" y="162.0" text-anchor="middle" font-size="9.4" font-family="Arial, sans-serif" font-weight="700" letter-spacing="0.4" fill="#FFFFFF">STATE / OUTPUT</text><text x="702.0" y="179.0" text-anchor="middle" font-size="10.9" font-family="Arial, sans-serif" font-weight="600" fill="#1A2E45">Stamp-metered</text><text x="702.0" y="191.0" text-anchor="middle" font-size="10.9" font-family="Arial, sans-serif" font-weight="600" fill="#1A2E45">execution updates and</text><text x="702.0" y="203.0" text-anchor="middle" font-size="10.9" font-family="Arial, sans-serif" font-weight="600" fill="#1A2E45">reads contract state</text><line x1="199" y1="186" x2="225" y2="186" stroke="#274D79" stroke-width="2" marker-end="url(#arrow)"/><line x1="395" y1="186" x2="421" y2="186" stroke="#274D79" stroke-width="2" marker-end="url(#arrow)"/><line x1="591" y1="186" x2="617" y2="186" stroke="#274D79" stroke-width="2" marker-end="url(#arrow)"/></svg>